# xmcd CD database file
#
# Track frame offsets:
#	152
#	14460
#	30212
#	43230
#	56997
#	78485
#	98305
#	118647
#	138765
#	154332
#	173405
#	194865
#	215955
#	235260
#	253340
#	272577
#	285590
#	300155
#	315375
#
# Disc length: 4411 seconds
#
# Revision: 0
# Processed by: cddbd v1.5.1PL0 Copyright (c) Steve Scherf et al.
# Submitted via: CDex 1.60beta1
#
DISCID=05113913
DTITLE=Noel Coward - London Pride
DYEAR=0
DGENRE=Jazz
TTITLE0=Lorelei
TTITLE1=The Dream Is Over
TTITLE2=Zigeuner
TTITLE3=World Weary
TTITLE4=Private Lives (Love Scene)
TTITLE5=(Scene 2) I Never Realised
TTITLE6=Medley - Parisian Pierrot
TTITLE7=Someday I’Ll Find You
TTITLE8=Let’S Say Goodbye
TTITLE9=Play, Orchestra, Play!
TTITLE10=You Were There
TTITLE11=Has Anybody Seen Our Ship
TTITLE12=Men About Town
TTITLE13=Here’S A Toast
TTITLE14=Hearts And Flowers
TTITLE15=We Were Dancing
TTITLE16=The Last Time I Saw Paris
TTITLE17=London Pride
TTITLE18=Could You Please Oblige Us With A Bren Gun
EXTD=YEAR: 0
EXTT0=
EXTT1=
EXTT2=
EXTT3=
EXTT4=
EXTT5=
EXTT6=
EXTT7=
EXTT8=
EXTT9=
EXTT10=
EXTT11=
EXTT12=
EXTT13=
EXTT14=
EXTT15=
EXTT16=
EXTT17=
EXTT18=
PLAYORDER=
